<svg xmlns="http://www.w3.org/2000/svg" xmlns:xlink="http://www.w3.org/1999/xlink">

<symbol id="github" fill-rule="evenodd" clip-rule="evenodd" stroke-linejoin="round" stroke-miterlimit="1.414"><path d="M8 0C3.58 0 0 3.582 0 8c0 3.535 2.292 6.533 5.47 7.59.4.075.547-.172.547-.385 0-.19-.007-.693-.01-1.36-2.226.483-2.695-1.073-2.695-1.073-.364-.924-.89-1.17-.89-1.17-.725-.496.056-.486.056-.486.803.056 1.225.824 1.225.824.714 1.223 1.873.87 2.33.665.072-.517.278-.87.507-1.07-1.777-.2-3.644-.888-3.644-3.953 0-.873.31-1.587.823-2.147-.09-.202-.36-1.015.07-2.117 0 0 .67-.215 2.2.82.64-.178 1.32-.266 2-.27.68.004 1.36.092 2 .27 1.52-1.035 2.19-.82 2.19-.82.43 1.102.16 1.915.08 2.117.51.56.82 1.274.82 2.147 0 3.073-1.87 3.75-3.65 3.947.28.24.54.73.54 1.48 0 1.07-.01 1.93-.01 2.19 0 .21.14.46.55.38C13.71 14.53 16 11.53 16 8c0-4.418-3.582-8-8-8"/></symbol>

<symbol id="linkedin" fill-rule="evenodd" clip-rule="evenodd" stroke-linejoin="round" stroke-miterlimit="1.414"><path d="M13.632 13.635h-2.37V9.922c0-.886-.018-2.025-1.234-2.025-1.235 0-1.424.964-1.424 1.96v3.778h-2.37V6H8.51v1.04h.03c.318-.6 1.092-1.233 2.247-1.233 2.4 0 2.845 1.58 2.845 3.637v4.188zM3.558 4.955c-.762 0-1.376-.617-1.376-1.377 0-.758.614-1.375 1.376-1.375.76 0 1.376.617 1.376 1.375 0 .76-.617 1.377-1.376 1.377zm1.188 8.68H2.37V6h2.376v7.635zM14.816 0H1.18C.528 0 0 .516 0 1.153v13.694C0 15.484.528 16 1.18 16h13.635c.652 0 1.185-.516 1.185-1.153V1.153C16 .516 15.467 0 14.815 0z" fill-rule="nonzero"/></symbol>

<symbol id="rss" fill-rule="evenodd" clip-rule="evenodd" stroke-linejoin="round" stroke-miterlimit="1.414"><path d="M12.8 16C12.8 8.978 7.022 3.2 0 3.2V0c8.777 0 16 7.223 16 16h-3.2zM2.194 11.61c1.21 0 2.195.985 2.195 2.196 0 1.21-.99 2.194-2.2 2.194C.98 16 0 15.017 0 13.806c0-1.21.983-2.195 2.194-2.195zM10.606 16h-3.11c0-4.113-3.383-7.497-7.496-7.497v-3.11c5.818 0 10.606 4.79 10.606 10.607z"/></symbol>

<symbol id="email" fill-rule="evenodd" clip-rule="evenodd" stroke-linejoin="round" stroke-miterlimit="1.414" width="16px" height="16px" viewBox="0 0 512 512"><path class="st0" d="M510.678,112.275c-2.308-11.626-7.463-22.265-14.662-31.054c-1.518-1.915-3.104-3.63-4.823-5.345 c-12.755-12.818-30.657-20.814-50.214-20.814H71.021c-19.557,0-37.395,7.996-50.21,20.814c-1.715,1.715-3.301,3.43-4.823,5.345 C8.785,90.009,3.63,100.649,1.386,112.275C0.464,116.762,0,121.399,0,126.087V385.92c0,9.968,2.114,19.55,5.884,28.203 c3.497,8.26,8.653,15.734,14.926,22.001c1.59,1.586,3.169,3.044,4.892,4.494c12.286,10.175,28.145,16.32,45.319,16.32h369.958 c17.18,0,33.108-6.145,45.323-16.384c1.718-1.386,3.305-2.844,4.891-4.43c6.27-6.267,11.425-13.741,14.994-22.001v-0.064 c3.769-8.653,5.812-18.171,5.812-28.138V126.087C512,121.399,511.543,116.762,510.678,112.275z M46.509,101.571 c6.345-6.338,14.866-10.175,24.512-10.175h369.958c9.646,0,18.242,3.837,24.512,10.175c1.122,1.129,2.179,2.387,3.112,3.637 L274.696,274.203c-5.348,4.687-11.954,7.002-18.696,7.002c-6.674,0-13.276-2.315-18.695-7.002L43.472,105.136 C44.33,103.886,45.387,102.7,46.509,101.571z M36.334,385.92V142.735L176.658,265.15L36.405,387.435 C36.334,386.971,36.334,386.449,36.334,385.92z M440.979,420.597H71.021c-6.281,0-12.158-1.651-17.174-4.552l147.978-128.959 l13.815,12.018c11.561,10.046,26.028,15.134,40.36,15.134c14.406,0,28.872-5.088,40.432-15.134l13.808-12.018l147.92,128.959 C453.137,418.946,447.26,420.597,440.979,420.597z M475.666,385.92c0,0.529,0,1.051-0.068,1.515L335.346,265.221L475.666,142.8 V385.92z"/></symbol>

<symbol id="resume" fill-rule="evenodd" clip-rule="evenodd" stroke-linejoin="round" stroke-miterlimit="1.414" width="16px" height="16px" viewBox="0 0 846.66 846.66">
<path d="M539.75 794.68c27.15,0 27.15,41.29 0,41.29l-497.47 0c-11.4,0 -20.64,-9.25 -20.64,-20.65l0 -621.69c0,-5.7 2.31,-10.87 6.04,-14.6l162.3 -162.29c4.03,-4.03 9.31,-6.05 14.59,-6.05l466.89 0c11.4,0 20.65,9.25 20.65,20.65l0 361.36c0,27.16 -41.29,27.16 -41.29,0l0 -340.72 -437.7 0 -150.19 150.2 0 592.5 476.82 0zm-351.21 -181.98c-27.16,0 -27.16,-41.29 0,-41.29l306.67 0c27.16,0 27.16,41.29 0,41.29l-306.67 0zm0 -274.68c-27.16,0 -27.16,-41.29 0,-41.29l306.67 0c27.16,0 27.16,41.29 0,41.29l-306.67 0zm0 91.56c-27.16,0 -27.16,-41.29 0,-41.29l306.67 0c27.16,0 27.16,41.29 0,41.29l-306.67 0zm0 91.56c-27.16,0 -27.16,-41.29 0,-41.29l306.67 0c27.16,0 27.16,41.29 0,41.29l-306.67 0zm0 -274.68c-27.16,0 -27.16,-41.29 0,-41.29l306.67 0c27.16,0 27.16,41.29 0,41.29l-306.67 0zm496.57 238.25c49.84,0 90.24,40.4 90.24,90.24 0,18.1 -5.33,34.95 -14.5,49.07 37.57,24.93 61.47,66.08 64.13,111.2 1.59,27.06 -39.55,29.47 -41.13,2.42 -2.11,-35.69 -22.61,-67.48 -54.13,-84.24 -13.16,7.5 -28.38,11.78 -44.61,11.78 -17.56,0 -33.95,-5.01 -47.81,-13.69 -33.44,16.12 -55.6,49.04 -57.79,86.15 -1.59,27.05 -42.72,24.64 -41.13,-2.42 2.79,-47.18 28.75,-89.88 69.08,-114.28 -7.99,-13.47 -12.58,-29.19 -12.58,-45.99 0,-49.83 40.4,-90.24 90.23,-90.24zm0 41.29c-27.03,0 -48.94,21.92 -48.94,48.95 0,27.03 21.91,48.94 48.94,48.94 27.03,0 48.95,-21.91 48.95,-48.94 0,-27.03 -21.91,-48.95 -48.95,-48.95z"/></symbol>

</svg>
